<?xml version="1.0" encoding="UTF-8"?>
<svg xmlns="http://www.w3.org/2000/svg" xmlns:xlink="http://www.w3.org/1999/xlink" width="728pt" height="543pt" viewBox="0 0 728 543" version="1.1">
<g id="surface1">
<path style=" stroke:none;fill-rule:evenodd;fill:rgb(13.699341%,12.199402%,12.5%);fill-opacity:1;" d="M 152.628906 125.675781 C 133.773438 111.71875 136.929688 110.871094 121.527344 92.75 C 115.285156 85.25 109.226563 84.039063 103.601563 77.835938 C 99.089844 72.867188 91.265625 66.6875 82.25 72.253906 C 76.585938 76.339844 74.769531 85.246094 71.453125 93.898438 C 67.816406 105.457031 83.941406 125.515625 91.628906 135.683594 C 97.144531 142.976563 105.011719 148.945313 110.535156 155.902344 C 45.640625 212.847656 3.886719 259.578125 0.285156 369.488281 C 1.15625 437.898438 33.230469 490.132813 84.9375 521.199219 C 124.816406 543.125 173.046875 546.582031 218.109375 538.234375 C 247.664063 532.757813 276.847656 529.054688 302.765625 518.203125 C 308.503906 515.800781 315.871094 513.855469 322.222656 512.851563 C 333.996094 510.667969 333.839844 509.175781 343.433594 507.136719 C 355.089844 504.554688 431.34375 508.292969 446.363281 510.289063 C 466.328125 513.285156 537.523438 515.425781 552.789063 510.375 C 581.503906 499.859375 588.589844 512.300781 633.105469 480.242188 C 662.304688 455.890625 697.488281 431.007813 709.230469 393.722656 C 714.089844 378.285156 722.3125 366.679688 724.878906 351.183594 C 732.851563 303.101563 722.824219 255.777344 701.203125 212.746094 C 675.308594 161.214844 636.332031 131.851563 588.816406 102.816406 C 590.808594 84.839844 603.921875 57.285156 600.265625 14.894531 C 590.429688 -7.25 560.152344 -0.0664063 556.0625 9.699219 C 553.140625 21.65625 550.214844 33.609375 547.292969 45.5625 C 544.050781 57.363281 539.570313 69.058594 534.96875 80.21875 C 468.128906 59.835938 376.808594 54.710938 293.617188 72.96875 C 247.621094 83.0625 193.597656 101.464844 152.628906 125.675781 "/>
<path style=" stroke:none;fill-rule:evenodd;fill:rgb(88.198853%,10.598755%,13.299561%);fill-opacity:1;" d="M 126.433594 129.039063 C 124.65625 123.992188 120.011719 113.855469 117.179688 108.519531 C 113.117188 100.65625 107.558594 94.859375 104.046875 93.441406 C 101.96875 92.601563 100.359375 94.078125 96.800781 92.949219 C 94.125 91.75 91.617188 90.863281 88.976563 93.667969 C 81.261719 102.757813 109.710938 137.335938 111.984375 139.105469 C 117.007813 144.460938 119.753906 150.089844 127.957031 146.640625 C 136.695313 140.113281 128.621094 136.4375 126.433594 129.039063 Z M 543.726563 98.589844 C 539.421875 110.210938 535.042969 122.078125 525.574219 118.5 C 515.535156 112.90625 524.078125 103.253906 526.53125 95.507813 C 497.03125 73.363281 350.664063 76.253906 311.492188 84.960938 C 247.90625 99.085938 186.425781 120.105469 138.847656 152.433594 C 88.378906 186.730469 54.492188 227.214844 29.492188 283.191406 C 13.890625 318.128906 4.355469 400.175781 30.132813 433.050781 C 41.074219 445.839844 43.488281 458.871094 55.1875 467.535156 C 67.773438 493.125 110.035156 508.242188 135.042969 513.453125 C 159.210938 519.757813 214.132813 521.957031 257.71875 516.242188 C 274.171875 513.660156 296.675781 501.296875 314.164063 496.953125 C 318.496094 496.238281 318.539063 495.246094 318.3125 494.160156 C 304.253906 490.539063 275.070313 496.015625 272.425781 488.664063 C 269.957031 481.425781 286.882813 478.605469 294.65625 477.140625 C 330.425781 470.394531 354.804688 478.128906 395.65625 478.214844 C 416.078125 478.15625 518.792969 488.070313 524.839844 487.699219 C 528.144531 487.691406 528.871094 485.933594 531.804688 485.742188 C 602.035156 483.6875 614.519531 479.808594 657.644531 434.808594 C 671.675781 420.164063 682.210938 412.570313 692.226563 389.660156 C 716.742188 333.585938 711.429688 240.109375 666.703125 189.121094 C 644.132813 162.148438 593.835938 110.363281 557.351563 110.519531 C 557.585938 110.046875 559.105469 107.816406 559.328125 107.332031 C 564.570313 95.941406 575.789063 63.914063 578.066406 49.664063 C 579.519531 40.578125 580.773438 45.898438 582.589844 50.976563 C 585.285156 39.140625 588.503906 24.976563 575.761719 21.675781 C 575.050781 19.726563 572.875 12.507813 569.605469 20.507813 C 561.835938 40.480469 548.320313 81.238281 543.726563 98.589844 "/>
<path style=" stroke:none;fill-rule:evenodd;fill:rgb(13.699341%,12.199402%,12.5%);fill-opacity:1;" d="M 373.644531 373.972656 C 414.671875 347.886719 390.539063 328.089844 377.09375 346.496094 C 369.917969 356.316406 367.960938 360.777344 354.136719 364.035156 C 307.539063 375 312.882813 340.386719 294.917969 346.902344 C 274.011719 358.472656 324.53125 401.953125 373.644531 373.972656 Z M 193.539063 280.316406 C 205.039063 284.441406 219.5625 249.972656 233.152344 249.054688 C 241.304688 247.546875 265.589844 265.398438 273.335938 258.726563 C 284.664063 242.230469 232.148438 210.148438 202.003906 246.535156 C 194.246094 255.902344 180.019531 271.511719 193.539063 280.316406 Z M 409.058594 240.210938 C 418.679688 250.277344 426.421875 232.171875 436.929688 227.988281 C 447.757813 225.316406 469.96875 245.179688 476.050781 240.519531 C 488.671875 228.332031 458.425781 208.140625 445.535156 206.34375 C 429.652344 203.996094 399.65625 223.890625 409.058594 240.210938 "/>
<path style=" stroke:none;fill-rule:evenodd;fill:rgb(95.298767%,48.199463%,46.299744%);fill-opacity:1;" d="M 666.375 414.199219 C 676.730469 417.144531 695.960938 372.089844 697.613281 360.566406 C 701.03125 342.292969 704.863281 308.691406 701.472656 279.925781 C 698.210938 313.8125 697.71875 357.523438 681.648438 387.488281 C 677.117188 395.9375 668.035156 406.890625 666.375 414.199219 Z M 305.960938 102.976563 C 253.039063 117.921875 212.625 137.175781 170.527344 173.832031 C 153.648438 190.453125 118.082031 215.089844 134.933594 232.511719 C 149.925781 247.488281 181.453125 220.378906 201.8125 207.746094 C 254.019531 175.355469 289.003906 163.988281 348.1875 149.207031 C 358.960938 146.519531 393.53125 141.523438 397.269531 122.3125 C 403.890625 84.246094 326.566406 97.160156 305.960938 102.976563 "/>
<path style=" stroke:none;fill-rule:evenodd;fill:rgb(38.798523%,0%,8.198547%);fill-opacity:1;" d="M 55.1875 467.535156 C 66.800781 491.976563 110.066406 509.339844 136.21875 514.488281 C 176.898438 521.902344 217.445313 520.390625 254.269531 516.894531 C 265.683594 515.894531 248.046875 514.324219 245.964844 514.253906 C 256.964844 506.816406 298.046875 489.105469 314.371094 494.71875 C 316.285156 495.453125 317.710938 494.738281 318.3125 494.160156 C 303.144531 487.480469 273.621094 496.265625 273.300781 487.375 C 274.148438 479.859375 289.160156 480.261719 296.933594 478.796875 C 332.703125 472.050781 354.871094 479.027344 395.726563 479.113281 C 411.914063 479.144531 521.417969 489.773438 526.863281 488.527344 C 528.511719 487.597656 530.15625 486.671875 531.804688 485.742188 C 523.777344 486.980469 514.785156 487.804688 515.117188 483.636719 C 516.359375 478.167969 520.355469 477.660156 536.277344 474.847656 C 579.882813 466.875 596.953125 461.953125 638.46875 423.6875 C 675.152344 388.015625 690.859375 336.4375 686.097656 289.769531 C 681.875 250.203125 672.144531 226.449219 663.914063 189.78125 C 663.03125 187.558594 661.539063 186.546875 664.140625 186.054688 C 630.523438 145.886719 624.847656 137.882813 575.394531 113.195313 C 574.328125 116.746094 573.566406 120.242188 570.285156 117.207031 C 564.113281 108.191406 579.082031 73.957031 582.589844 50.976563 C 582.054688 49.476563 581.519531 47.980469 580.984375 46.484375 C 579.945313 43.96875 579.050781 43.503906 578.066406 49.664063 C 575.789063 63.914063 564.570313 95.941406 559.328125 107.332031 C 555.542969 115.554688 549.53125 122.3125 557.601563 131.828125 C 577.613281 129.210938 568.964844 136.808594 581.363281 124.886719 C 653.617188 196.144531 631.046875 366.941406 500.097656 403.511719 C 388.289063 433.265625 339.164063 408.015625 305.863281 415.433594 C 283.859375 420.335938 268.214844 439.28125 249.757813 451.910156 C 189.472656 493.15625 105.90625 499.992188 55.1875 467.535156 Z M 97.523438 93.148438 C 100.089844 100.25 98.128906 103.003906 107.71875 116.945313 C 112.867188 123.609375 117.601563 132.832031 123.164063 136.941406 C 127.324219 139.105469 125.992188 132.054688 126.351563 128.808594 C 124.519531 123.6875 119.96875 113.773438 117.179688 108.519531 C 113.117188 100.65625 107.558594 94.859375 104.046875 93.441406 C 102.113281 92.660156 100.589844 93.882813 97.523438 93.148438 "/>
<path style=" stroke:none;fill-rule:evenodd;fill:rgb(100%,100%,100%);fill-opacity:1;" d="M 544.273438 96.570313 L 544.855469 106.828125 C 549.535156 108.023438 561.140625 58.925781 568.628906 44.5625 C 572.070313 37.964844 575.863281 30.9375 575.761719 21.675781 C 575.050781 19.726563 572.875 12.507813 569.605469 20.507813 C 562.121094 39.742188 549.3125 78.253906 544.273438 96.570313 Z M 176.601563 195.339844 C 182.148438 200.074219 192.757813 192.824219 199.425781 189.308594 C 221.242188 177.792969 240.773438 163.777344 261.0625 153.980469 C 299.417969 135.605469 349.316406 131.546875 349.167969 113.460938 C 347.988281 104.285156 314.023438 112.621094 295.550781 116.320313 C 266.332031 122.570313 227.320313 144.058594 206.632813 159.84375 C 194.628906 168.96875 169.9375 187.960938 176.601563 195.339844 Z M 90.472656 94.710938 C 88.453125 98.027344 94.214844 110.679688 96.390625 108.800781 C 97.96875 104.011719 94.039063 91.234375 90.472656 94.710938 "/>
</g>
</svg>
